<mxfile host="app.diagrams.net" modified="2023-12-27T11:23:39.113Z" agent="Mozilla/5.0 (Windows NT 10.0; Win64; x64) AppleWebKit/537.36 (KHTML, like Gecko) Chrome/120.0.0.0 Safari/537.36" version="22.1.12" etag="_jUA9AdNVNyv2Aoj9YqE" type="github">
  <diagram name="Page-1" id="ImfD8RN1K8iNRl7g4JuT">
    <mxGraphModel>
      <root>
        <mxCell id="0" />
        <mxCell id="1" parent="0" />
      </root>
    </mxGraphModel>
  </diagram>
</mxfile>
